<mxfile host="app.diagrams.net" modified="2023-10-24T02:21:36.091Z" agent="Mozilla/5.0 (X11; Linux x86_64; rv:109.0) Gecko/20100101 Firefox/114.0" version="22.0.6" etag="OW78qa_R0sZf1uFA-5L5" type="github">
  <diagram name="第 1 页" id="XfYOO3871GTrDLD-OyCR">
    <mxGraphModel>
      <root>
        <mxCell id="0" />
        <mxCell id="1" parent="0" />
      </root>
    </mxGraphModel>
  </diagram>
</mxfile>
